<svg xmlns="http://www.w3.org/2000/svg" viewBox="0 0 1000 1550"><g transform="translate(0 1200) scale(1 -1)"><path d="M461.5605163574219 466.2528381347656Q463.96710205078125 474.95831298828125 466.3194580078125 483.7751770019531Q472.80010986328125 508.065673828125 478.25360107421875 532.9827880859375Q480.98956298828125 545.4837646484375 478.83741760253906 558.1033020019531Q476.6852722167969 570.7228393554688 469.9726104736328 581.5400085449219Q463.25994873046875 592.357177734375 453.0087585449219 599.7249755859375Q448.4634094238281 602.9917602539062 443.52923583984375 605.3599853515625H446.0Q458.53143310546875 605.3599853515625 470.10902404785156 610.2621459960938Q481.6866149902344 615.164306640625 490.5476531982422 624.2222900390625Q499.40869140625 633.2802734375 504.2043151855469 645.1151123046875Q508.99993896484375 656.949951171875 509.0 669.7599487304688V686.3200073242188Q508.99993896484375 699.1298828125 504.2043151855469 710.9647216796875Q499.40869140625 722.799560546875 490.54762268066406 731.8575744628906Q481.6865539550781 740.9155883789062 470.1090087890625 745.8177490234375Q458.5314636230469 750.7199096679688 446.0000915527344 750.7200317382812H157.10000610351562Q144.5684814453125 750.7199096679688 132.99090576171875 745.8177490234375Q121.413330078125 740.9155883789062 112.55224609375 731.8576049804688Q103.691162109375 722.7996215820312 98.89557647705078 710.9647216796875Q94.09999084472656 699.1298217773438 94.0999984741211 686.3200073242188V4.599999904632568Q94.09999084472656 -8.209957122802734 98.89558029174805 -20.044815063476562Q103.69116973876953 -31.87967300415039 112.55226135253906 -40.93767547607422Q121.4133529663086 -49.99567794799805 132.9909324645996 -54.897836685180664Q144.56851196289062 -59.79999542236328 157.09999084472656 -59.79999923706055H176.89999389648438Q189.43145751953125 -59.79999542236328 201.009033203125 -54.89783477783203Q212.58660888671875 -49.99567413330078 221.44770050048828 -40.93767547607422Q230.3087921142578 -31.879676818847656 235.10440063476562 -20.044816970825195Q238.85813903808594 -10.781109809875488 239.67364501953125 -0.9200000166893005H431.6929626464844Q445.21221923828125 -19.072078704833984 460.0518493652344 -43.09358215332031Q466.74285888671875 -53.9246711730957 476.9793701171875 -61.31384086608887Q487.21588134765625 -68.70301055908203 499.439453125 -71.52532196044922Q511.66302490234375 -74.3476333618164 524.0126953125 -72.17340469360352Q536.3623657226562 -69.99917602539062 546.9580078125 -63.15944290161133Q552.12548828125 -59.82368850708008 556.5694580078125 -55.53473663330078Q568.3214721679688 -44.19271469116211 579.1719970703125 -31.71462059020996Q612.2540283203125 6.329660892486572 636.6292724609375 48.171356201171875Q660.9412231445312 89.90435028076172 676.117919921875 129.86447143554688Q681.7311401367188 144.64410400390625 686.0284423828125 158.21595764160156Q689.7763671875 145.1607208251953 694.5161743164062 130.79237365722656Q707.82080078125 90.46044921875 728.8832397460938 48.33555221557617Q750.085693359375 5.930863380432129 780.0267333984375 -32.209571838378906Q787.9685668945312 -42.32621383666992 796.4064331054688 -51.63391876220703Q804.9241943359375 -61.02976608276367 816.3110961914062 -66.37832832336426Q827.697998046875 -71.72689056396484 840.2203674316406 -72.21391296386719Q852.7427368164062 -72.70093536376953 864.4943542480469 -68.25226783752441Q876.2459716796875 -63.8036003112793 885.4375 -55.09653854370117Q890.68896484375 -50.12187194824219 894.7145385742188 -44.06950759887695Q903.53125 -30.813522338867188 912.516357421875 -17.89748191833496Q919.2616577148438 -8.201146125793457 922.1724243164062 3.318693161010742Q925.0831909179688 14.838532447814941 923.7752075195312 26.661131381988525Q922.4672241210938 38.48373031616211 917.1130676269531 49.048133850097656Q911.7589111328125 59.6125373840332 903.0655517578125 67.52397155761719Q874.1448364257812 93.843505859375 852.5828247070312 124.64464569091797Q818.9354858398438 172.70962524414062 798.8507080078125 223.71392822265625Q795.5140380859375 232.18704223632812 790.0902099609375 239.27679443359375Q789.7195434570312 248.315185546875 786.9093017578125 256.92724609375Q775.2300415039062 292.7198181152344 769.3865966796875 326.6728820800781Q764.504150390625 355.0423889160156 762.464111328125 379.35400390625Q762.8759765625 378.30718994140625 763.3245849609375 377.2718200683594Q767.2868041992188 368.12713623046875 773.7753601074219 360.6416473388672Q780.263916015625 353.1561584472656 788.6676025390625 348.03485107421875L795.1549072265625 344.0814514160156Q805.918701171875 337.5218811035156 818.3188781738281 335.6723327636719Q830.7190551757812 333.8227844238281 842.8677673339844 336.96485900878906Q855.0164794921875 340.10693359375 865.0641174316406 347.7622528076172Q875.1117553710938 355.4175720214844 881.5286865234375 366.4206237792969Q885.3824462890625 373.0287170410156 887.6050415039062 380.3786926269531Q896.9959716796875 411.43426513671875 905.581298828125 446.7580871582031Q918.1954956054688 498.6584777832031 926.8633422851562 549.8973388671875Q928.7564086914062 561.0885009765625 926.7904663085938 572.2664184570312Q924.8245239257812 583.4443359375 919.2366638183594 593.2605590820312Q913.6488037109375 603.0767822265625 905.1131591796875 610.3469543457031Q896.5775146484375 617.6171264648438 886.1239013671875 621.4639892578125L854.85205078125 632.9720458984375Q833.4236450195312 640.857666015625 812.1375122070312 632.9600219726562H669.8807983398438Q675.6715087890625 661.6956787109375 681.1650390625 691.6455078125Q682.99560546875 701.6261596679688 684.6621704101562 711.6060180664062Q686.770751953125 724.233154296875 683.9916687011719 736.7242126464844Q681.2125854492188 749.2152709960938 673.9689025878906 759.6683044433594Q666.7252197265625 770.121337890625 656.1196899414062 776.9449462890625Q645.51416015625 783.7685546875 633.1614990234375 785.9241943359375Q632.5556640625 786.0299682617188 631.9468994140625 786.1236572265625L605.1266479492188 790.2548828125Q592.7349853515625 792.1634521484375 580.5721130371094 789.0794677734375Q568.4092407226562 785.9954833984375 558.3267211914062 778.38818359375Q548.2442016601562 770.7808837890625 541.777099609375 759.80859375Q535.3099975585938 748.8363037109375 533.44287109375 736.16943359375Q533.395263671875 735.8465576171875 533.350830078125 735.5225219726562Q527.3177490234375 691.5757446289062 518.670654296875 648.520263671875Q504.87298583984375 579.8187255859375 484.4273986816406 521.2080078125Q474.1233825683594 491.6698303222656 461.5605163574219 466.2528381347656ZM450.4488830566406 144.44000244140625H239.89999389648438V177.0183868408203Q243.26919555664062 174.04507446289062 246.65481567382812 170.97518920898438Q256.02960205078125 162.474609375 267.87306213378906 158.28843688964844Q279.7165222167969 154.10226440429688 292.22560119628906 154.86775970458984Q304.73468017578125 155.6332550048828 316.0049743652344 161.23388671875Q327.2752685546875 166.8345184326172 335.5910339355469 176.41763305664062Q338.20257568359375 179.4272003173828 340.4274597167969 182.74559020996094Q359.1363220214844 210.65036010742188 375.76885986328125 241.9749755859375Q380.02423095703125 236.28504943847656 384.0180358886719 230.711181640625Q391.4228210449219 220.37684631347656 402.1328582763672 213.72579193115234Q412.8428955078125 207.07473754882812 425.22755432128906 205.11962890625Q437.6122131347656 203.16452026367188 449.78607177734375 206.2029571533203Q461.9599304199219 209.24139404296875 472.0696716308594 216.81082153320312Q478.6720275878906 221.7541961669922 483.8197326660156 228.2578582763672L494.35516357421875 241.56851196289062Q500.8580627441406 249.78436279296875 504.4511413574219 259.69384765625Q508.0442199707031 269.60333251953125 508.35069274902344 280.1668701171875Q508.65716552734375 290.73040771484375 505.6448211669922 300.8401184082031Q502.6324768066406 310.9498291015625 496.6173095703125 319.54510498046875Q490.1527404785156 328.7825622558594 482.90509033203125 338.39813232421875Q463.2189025878906 364.5161437988281 439.32647705078125 391.78155517578125Q445.2559814453125 410.1972961425781 450.9122314453125 429.16912841796875Q450.9465637207031 422.8204650878906 452.2224426269531 416.5115661621094Q454.44482421875 405.52301025390625 460.1718292236328 395.95030212402344Q465.8988342285156 386.3775939941406 474.45550537109375 379.3489990234375Q484.6231384277344 370.9971008300781 494.44366455078125 362.4098205566406Q503.96636962890625 354.0828857421875 515.8815612792969 350.1150207519531Q527.7967529296875 346.14715576171875 540.290283203125 347.14234924316406Q552.7838134765625 348.1375427246094 563.953857421875 353.9443359375Q575.1239013671875 359.7511291503906 583.2698364257812 369.4855041503906Q588.745361328125 376.0287780761719 592.3468017578125 383.8124694824219Q595.471435546875 390.5655517578125 598.5147705078125 397.5462646484375Q605.2669067382812 413.0340881347656 611.5999755859375 429.2452392578125V412.15997314453125Q611.5999755859375 371.835693359375 601.0030517578125 316.7709655761719Q595.2542724609375 286.8983154296875 585.0517578125 256.3197021484375Q582.6179809570312 249.02525329589844 581.9388427734375 241.4765625Q577.5966186523438 235.2906036376953 574.765625 228.14474487304688Q570.138671875 216.46575927734375 564.8760375976562 204.68630981445312Q542.8663940429688 155.4217071533203 505.63189697265625 111.11083984375Q505.3057556152344 111.71534729003906 504.966552734375 112.3140640258789Q499.40667724609375 122.12789916992188 490.9017028808594 129.40991973876953Q482.396728515625 136.6919403076172 471.96990966796875 140.56597137451172Q461.5430908203125 144.44000244140625 450.4488830566406 144.44000244140625ZM369.5561218261719 605.3599853515625Q367.6068115234375 604.197265625 365.721923828125 602.8822021484375Q355.6598815917969 595.8621215820312 348.8833465576172 585.5137023925781Q342.1068115234375 575.165283203125 339.59283447265625 562.98046875Q333.7566223144531 534.6939697265625 326.814697265625 506.7851867675781Q320.5403137207031 512.8958129882812 314.32672119140625 518.8186645507812Q305.16168212890625 527.5548706054688 293.42376708984375 532.0408020019531Q281.68585205078125 536.5267333984375 269.16192626953125 536.0794982910156Q256.63800048828125 535.6322631835938 245.23501586914062 530.3200073242188Q242.4842071533203 529.0384521484375 239.89991760253906 527.5210571289062L239.8999786376953 605.3599853515625ZM229.09999084472656 257.6000061035156V425.96002197265625Q244.39999389648438 411.2400207519531 259.6999969482422 395.1400146484375Q275.0 379.0400085449219 289.3999938964844 362.4800109863281Q276.79998779296875 333.9599914550781 261.94998931884766 307.2799987792969Q247.09999084472656 280.6000061035156 229.09999084472656 257.6000061035156ZM761.0 425.5177307128906V490.3600158691406H771.8831787109375Q766.7843627929688 455.9492492675781 761.0 425.5177307128906Z"/></g></svg>