<svg xmlns="http://www.w3.org/2000/svg" viewBox="0 0 1000 1550"><g transform="translate(0 1200) scale(1 -1)"><path d="M518.6737060546875 -44.15999984741211H597.3079833984375Q605.8795166015625 -44.15999984741211 613.7985229492188 -40.80693817138672Q621.717529296875 -37.45387649536133 627.7785339355469 -31.258164405822754Q633.8395385742188 -25.06245231628418 637.1197204589844 -16.967445850372314Q640.39990234375 -8.87243938446045 640.3999633789062 -0.11049343645572662V71.9288558959961Q641.0816040039062 71.16768646240234 641.8011474609375 70.43222045898438Q648.0924682617188 64.00102996826172 656.3125 60.52052688598633Q657.3858642578125 60.0660514831543 658.4708251953125 59.67087936401367Q653.1337280273438 53.386898040771484 650.3035278320312 45.534053802490234Q647.2276611328125 36.999855041503906 647.5808715820312 27.911943435668945Q647.93408203125 18.824031829833984 651.6627197265625 10.565972328186035Q651.9014282226562 10.037393569946289 652.1525268554688 9.516399383544922Q654.4375 4.776411056518555 656.7634887695312 -0.17716152966022491Q658.0573120117188 -2.9327118396759033 659.2671508789062 -5.569701671600342Q663.0448608398438 -13.804186820983887 669.6178283691406 -19.934044361114502Q676.1907958984375 -26.063901901245117 684.5582580566406 -29.155882835388184Q692.9257202148438 -32.24786376953125 701.8136596679688 -31.831247329711914Q709.507080078125 -31.470630645751953 716.5765991210938 -28.52879524230957Q722.0607299804688 -40.1547966003418 727.5723876953125 -54.24011993408203Q730.3203735351562 -61.262813568115234 732.5275268554688 -67.89399719238281Q737.3067626953125 -82.25272369384766 749.5335388183594 -90.84500885009766Q761.7603149414062 -99.43729400634766 776.5867919921875 -98.85636901855469Q791.478271484375 -98.27288818359375 804.3336791992188 -97.00931549072266Q829.528076171875 -94.53294372558594 850.9691162109375 -84.57044982910156Q875.8602294921875 -72.38925170898438 883.2079467773438 -51.58964920043945Q889.699951171875 -33.212215423583984 889.699951171875 0.0V57.040000915527344H893.5699462890625Q902.4672241210938 57.040000915527344 910.687255859375 60.52053451538086Q918.9072875976562 64.00106811523438 925.1986999511719 70.43225860595703Q931.4901123046875 76.86344909667969 934.8949584960938 85.2661361694336Q938.2998046875 93.6688232421875 938.2999877929688 102.7638168334961V111.59600830078125Q938.2998046875 120.6911392211914 934.8949890136719 129.09381484985352Q931.4901733398438 137.49649047851562 925.1987609863281 143.92770385742188Q918.9073486328125 150.35891723632812 910.6872863769531 153.83946228027344Q902.4672241210938 157.32000732421875 893.5699462890625 157.32000732421875H889.699951171875V161.9199981689453H894.469970703125Q903.3671875 161.9199981689453 911.5872802734375 165.40052795410156Q919.807373046875 168.8810577392578 926.0987243652344 175.31221771240234Q932.3900756835938 181.74337768554688 935.7949523925781 190.1460952758789Q939.1998291015625 198.54881286621094 939.199951171875 207.64381408691406V219.2360076904297Q939.1998291015625 228.3311767578125 935.7949523925781 236.73385620117188Q932.3900756835938 245.13653564453125 926.0987243652344 251.56773376464844Q919.807373046875 257.9989318847656 911.5873107910156 261.4794616699219Q903.3672485351562 264.9599914550781 894.469970703125 264.9599914550781H876.5759887695312Q877.5028076171875 265.288818359375 878.418212890625 265.6764221191406Q884.4558715820312 268.2329406738281 889.0770263671875 272.9567413330078Q893.6981811523438 277.6805419921875 896.1990051269531 283.8522491455078Q898.6998291015625 290.0239562988281 898.699951171875 296.7043151855469V324.29541015625Q898.6998291015625 330.9759826660156 896.1990051269531 337.1476593017578Q893.6981811523438 343.3193359375 889.0770263671875 348.0431823730469Q884.4558715820312 352.76702880859375 878.418212890625 355.32350158691406Q872.3805541992188 357.8799743652344 865.8455200195312 357.8800048828125H827.0759887695312Q828.0028076171875 358.2088317871094 828.9182739257812 358.5964660644531Q834.9558715820312 361.15289306640625 839.5769958496094 365.8766784667969Q844.1981201171875 370.6004638671875 846.698974609375 376.7723083496094Q847.903564453125 379.744873046875 848.5278930664062 382.8352966308594L868.0457153320312 378.284912109375Q874.0234985351562 376.89129638671875 880.0906372070312 377.79539489746094Q886.1577758789062 378.6994934082031 891.4975280761719 381.77964782714844Q896.8372802734375 384.85980224609375 900.7308959960938 389.7014617919922Q904.62451171875 394.5431213378906 906.5476684570312 400.4942626953125Q913.3544311523438 421.557373046875 920.3577880859375 447.391845703125Q927.4926147460938 473.7116394042969 933.566162109375 498.9515380859375Q935.1270751953125 505.4384765625 934.1407165527344 512.0423278808594Q933.1543579101562 518.6461791992188 929.7708740234375 524.3615417480469Q926.3873901367188 530.076904296875 921.1218566894531 534.0336303710938Q915.8563232421875 537.9903564453125 909.5104370117188 539.5859985351562Q908.8776245117188 539.7451782226562 908.2391357421875 539.8785400390625L854.5003051757812 551.1013793945312Q862.4044189453125 554.5625 868.4987182617188 560.7921752929688Q874.7901000976562 567.223388671875 878.1949462890625 575.6260681152344Q881.5997924804688 584.0287475585938 881.5999755859375 593.1238403320312V599.1959838867188Q881.5997924804688 608.2910766601562 878.1950073242188 616.6937255859375Q874.7902221679688 625.0963745117188 868.4987182617188 631.5276489257812Q862.2072143554688 637.9589233398438 853.9873046875 641.4393920898438Q851.7438354492188 642.3893432617188 849.449951171875 643.0800170898438H881.8699951171875Q890.7672729492188 643.0800170898438 898.9873046875 646.560546875Q907.2073364257812 650.0410766601562 913.4986877441406 656.4721984863281Q919.7900390625 662.9033203125 923.1949157714844 671.3060302734375Q926.5997924804688 679.708740234375 926.5999755859375 688.8038330078125V694.8759765625Q926.5997924804688 703.9711303710938 923.1949768066406 712.3737182617188Q919.7901611328125 720.7763061523438 913.4987487792969 727.2075805664062Q907.2073364257812 733.6388549804688 898.9873046875 737.1194152832031Q890.7672729492188 740.5999755859375 881.8700561523438 740.6000366210938H728.5999755859375V751.916015625Q728.5999145507812 761.0111083984375 725.1950378417969 769.4137878417969Q721.7901611328125 777.8164672851562 715.4987487792969 784.2476806640625Q709.2073364257812 790.6788940429688 700.9873046875 794.1594543457031Q692.7672729492188 797.6400146484375 683.8699951171875 797.6400146484375H628.4299926757812Q619.5325317382812 797.6400146484375 611.3124389648438 794.1594543457031Q603.0923461914062 790.6788940429688 596.8010559082031 784.2477416992188Q590.509765625 777.8165893554688 587.1048889160156 769.4137878417969Q583.7000122070312 761.010986328125 583.7000122070312 751.916015625V740.6000366210938H446.6300048828125Q437.7325439453125 740.5999755859375 429.51246643066406 737.1194152832031Q421.2923889160156 733.6388549804688 415.00103759765625 727.2076416015625Q408.7096862792969 720.7764282226562 405.30482482910156 712.3736877441406Q401.89996337890625 703.970947265625 401.8999938964844 694.8759155273438V688.8040161132812Q401.89996337890625 679.7089233398438 405.3048400878906 671.3061218261719Q408.709716796875 662.9033203125 415.0010986328125 656.47216796875Q421.29248046875 650.041015625 429.5125732421875 646.5605163574219Q437.732666015625 643.0800170898438 446.6300048828125 643.0800170898438H474.5498962402344Q472.2559814453125 642.3893432617188 470.01251220703125 641.4393920898438Q461.7924499511719 637.9588623046875 455.5010528564453 631.5276794433594Q449.20965576171875 625.0964965820312 445.8047790527344 616.6937866210938Q442.39990234375 608.2910766601562 442.3999938964844 599.1958618164062V593.1240234375Q442.39990234375 584.0289306640625 445.8048095703125 575.6261291503906Q449.209716796875 567.2233276367188 455.5010681152344 560.7921752929688Q461.79241943359375 554.3610229492188 470.0124816894531 550.8804931640625Q472.25579833984375 549.9306030273438 474.54962158203125 549.239990234375H426.65447998046875Q420.1192321777344 549.239990234375 414.08152770996094 546.6835021972656Q408.0438232421875 544.1270141601562 403.42279052734375 539.4033203125Q399.73699951171875 535.6355590820312 397.3999938964844 530.9465942382812V719.7160034179688Q397.3999938964844 728.81103515625 393.9951171875 737.2137756347656Q390.5902404785156 745.6165161132812 384.29884338378906 752.0476684570312Q378.0074462890625 758.4788208007812 369.78741455078125 761.9593200683594Q361.5673828125 765.4398193359375 352.6701354980469 765.4400024414062H143.32998657226562Q134.4325408935547 765.4398193359375 126.21252822875977 761.9593200683594Q117.99251556396484 758.4788208007812 111.70111846923828 752.0476989746094Q105.40972137451172 745.6165771484375 102.0048599243164 737.2138061523438Q98.5999984741211 728.81103515625 98.5999984741211 719.7160034179688V472.6040344238281Q98.5999984741211 463.5089416503906 102.0048599243164 455.1061706542969Q105.40972137451172 446.7033996582031 111.70108795166016 440.272216796875Q117.9924545288086 433.8410339355469 126.21256637573242 430.3605194091797Q134.43267822265625 426.8800048828125 143.32998657226562 426.8800048828125H205.6999969482422V348.0359802246094Q205.69998168945312 357.13104248046875 202.29511260986328 365.5337829589844Q198.89024353027344 373.9365234375 192.59884643554688 380.3677215576172Q186.3074493408203 386.7989196777344 178.08740997314453 390.2794494628906Q169.86737060546875 393.7599792480469 160.97003173828125 393.760009765625H133.42999267578125Q124.53260803222656 393.7599792480469 116.31253051757812 390.27943420410156Q108.09245300292969 386.79888916015625 101.80109024047852 380.3677062988281Q95.50972747802734 373.9365234375 92.10486221313477 365.5337677001953Q88.69999694824219 357.1310119628906 88.69999694824219 348.0359802246094V97.33370208740234Q84.87084197998047 95.67261505126953 81.343505859375 93.2667236328125Q73.96856689453125 88.23648071289062 69.02820205688477 80.71098709106445Q64.08783721923828 73.18549346923828 62.32906532287598 64.30265617370605Q60.57029342651367 55.41981887817383 62.259056091308594 46.522796630859375L72.37628936767578 -6.77863073348999Q74.07102966308594 -15.707176208496094 78.97930145263672 -23.293124198913574Q83.8875732421875 -30.879072189331055 91.26213073730469 -35.96751689910889Q98.63668823242188 -41.05596160888672 107.35481643676758 -42.872236251831055Q116.07294464111328 -44.68851089477539 124.80740356445312 -42.95610809326172Q125.33953094482422 -42.85057067871094 125.86897277832031 -42.731876373291016L245.81344604492188 -15.843742370605469Q315.6496276855469 -0.275067538022995 383.6739807128906 16.239120483398438Q391.56884765625 18.155752182006836 398.3020782470703 22.78505516052246Q405.0353088378906 27.414358139038086 409.74871826171875 34.16633605957031Q410.84527587890625 35.737125396728516 411.79998779296875 37.376220703125V-30.470399856567383Q411.7998962402344 -39.23234939575195 415.0801086425781 -47.32742691040039Q418.3603210449219 -55.42250442504883 424.42127990722656 -61.61816596984863Q430.48223876953125 -67.81382751464844 438.4013366699219 -71.16691589355469Q446.3204345703125 -74.52000427246094 454.8919982910156 -74.52000427246094H477.7095947265625Q485.84033203125 -74.52000427246094 493.4120330810547 -71.49137878417969Q500.9837341308594 -68.46275329589844 506.9552459716797 -62.82195854187012Q512.9267578125 -57.1811637878418 516.4769287109375 -49.70384979248047Q517.767578125 -46.98548889160156 518.6737060546875 -44.15999984741211ZM486.5110778808594 448.0400085449219Q480.7629699707031 445.5021057128906 476.32281494140625 440.9632873535156Q471.70172119140625 436.239501953125 469.20082092285156 430.06761169433594Q466.6999206542969 423.8957214355469 466.6999816894531 417.21533203125V389.6246032714844Q466.699951171875 382.9441833496094 469.2008361816406 376.77227783203125Q471.70172119140625 370.6003723144531 476.3227996826172 365.8766326904297Q480.9438781738281 361.15289306640625 486.9815979003906 358.596435546875Q487.89703369140625 358.2088317871094 488.8238830566406 357.8800048828125H455.4544982910156Q448.9192810058594 357.8799743652344 442.88157653808594 355.323486328125Q436.8438720703125 352.7669982910156 432.2228546142578 348.0432891845703Q427.6018371582031 343.319580078125 425.1009063720703 337.1476593017578Q422.5999755859375 330.9757385253906 422.5999755859375 324.29534912109375V296.7046203613281Q422.5999755859375 290.02423095703125 425.1008605957031 283.8523254394531Q427.60174560546875 277.680419921875 432.2227783203125 272.9566955566406Q436.84381103515625 268.23297119140625 442.8815612792969 265.67645263671875Q443.7969665527344 265.2888488769531 444.7239074707031 264.9599914550781H434.92999267578125Q426.0326232910156 264.9599914550781 417.8125305175781 261.4794464111328Q409.5924377441406 257.9989013671875 403.30108642578125 251.56773376464844Q402.0908508300781 250.3306121826172 400.9873352050781 249.02040100097656Q402.79998779296875 255.28790283203125 402.79998779296875 261.9239501953125V304.7959899902344Q402.7999572753906 313.89105224609375 399.3950653076172 322.2937774658203Q395.99017333984375 330.6965026855469 389.69879150390625 337.12770080566406Q383.40740966796875 343.55889892578125 375.1873779296875 347.03944396972656Q366.96734619140625 350.5199890136719 358.0700378417969 350.52001953125H330.79998779296875V426.8800048828125H352.66998291015625Q361.5672912597656 426.8800048828125 369.7873840332031 430.3605194091797Q378.0074768066406 433.8410339355469 384.2988586425781 440.27220153808594Q390.5902404785156 446.703369140625 393.9951171875 455.106201171875Q396.3409729003906 460.8953552246094 397.0705871582031 467.01312255859375Q399.4716796875 461.91552734375 403.4228820800781 457.8766174316406Q408.0438232421875 453.15289306640625 414.08160400390625 450.59645080566406Q420.119384765625 448.0400085449219 426.65447998046875 448.0400085449219ZM212.89999389648438 545.5599975585938V645.8400268554688H275.8999938964844V545.5599975585938ZM434.01104736328125 161.9293212890625Q428.7436828613281 158.95655822753906 424.42132568359375 154.5381622314453Q418.36029052734375 148.3424530029297 415.08009338378906 140.24742126464844Q411.7998962402344 132.1523895263672 411.79998779296875 123.39029693603516V118.58031463623047Q410.550537109375 122.6875 408.52874755859375 126.55525970458984Q404.3356018066406 134.57691955566406 397.45855712890625 140.3477020263672Q390.5815124511719 146.1184844970703 382.067626953125 148.75975799560547Q373.5537414550781 151.40103149414062 364.69921875 150.51075744628906Q362.63238525390625 150.30294799804688 360.593505859375 149.90032958984375L330.79998779296875 144.016845703125V216.1999969482422L358.0699768066406 216.20001220703125Q366.9673156738281 216.20001220703125 375.18736267089844 219.68053436279297Q383.40740966796875 223.1610565185547 389.6988220214844 229.59225463867188Q390.90911865234375 230.82943725585938 392.01263427734375 232.13961791992188Q390.1999816894531 225.87208557128906 390.1999816894531 219.2359619140625V207.6439971923828Q390.199951171875 198.54893493652344 393.6048278808594 190.14617156982422Q397.00970458984375 181.743408203125 403.3010711669922 175.31222534179688Q409.5924377441406 168.88104248046875 417.8125305175781 165.40052795410156Q425.60723876953125 162.10009765625 434.01104736328125 161.9293212890625ZM776.2999877929688 68.08000183105469V2.759999990463257Q776.2999877929688 -7.360000133514404 766.3999633789062 -8.279999732971191H733.0999755859375L760.0999755859375 6.440000057220459Q755.5999755859375 18.399999618530273 746.5999755859375 35.42000102996826Q737.5999755859375 52.44000244140625 727.7000122070312 68.08000183105469ZM509.8999938964844 80.95999908447266H539.5999755859375V42.31999969482422H509.8999938964844ZM637.6077270507812 138.99058532714844Q637.3734130859375 139.6214141845703 637.1197509765625 140.2474365234375Q633.8395385742188 148.34242248535156 627.778564453125 154.5381317138672Q623.462890625 158.9496612548828 618.205322265625 161.9199981689453H765.5V157.32000732421875H673.4299926757812Q664.5325317382812 157.32000732421875 656.3125 153.83946228027344Q648.0924682617188 150.35891723632812 641.8010864257812 143.92771911621094Q639.5136108398438 141.5894317626953 637.6077270507812 138.99058532714844Z"/></g></svg>