<svg xmlns="http://www.w3.org/2000/svg" viewBox="0 0 1000 1550"><g transform="translate(0 1200) scale(1 -1)"><path d="M956.1088256835938 -69.51595306396484 955.6099243164062 10.549142837524414Q955.536865234375 22.2608642578125 951.0849914550781 33.05253601074219Q946.6331176757812 43.844207763671875 938.4801025390625 52.072898864746094Q930.3270874023438 60.30158996582031 919.7141723632812 64.71455383300781Q909.1012573242188 69.12751770019531 897.6441650390625 69.05292510986328Q897.1912841796875 69.04998016357422 896.7384033203125 69.03974151611328Q894.979248046875 69.0 893.2999877929688 69.0Q889.0963134765625 69.0 886.1981201171875 69.33834838867188Q886.7843627929688 83.74373626708984 890.8719482421875 94.050537109375Q898.1644287109375 112.43864440917969 904.861083984375 136.39764404296875Q912.199951171875 162.65452575683594 912.199951171875 203.32000732421875Q912.199951171875 246.52218627929688 889.778564453125 281.47467041015625Q879.90673828125 296.8638000488281 870.6602783203125 308.23681640625Q888.4083251953125 335.3451232910156 894.2295532226562 368.6681213378906Q901.3999633789062 409.7149963378906 901.3999633789062 447.1199951171875Q901.3999633789062 483.0146179199219 895.0096435546875 515.1740112304688Q889.699951171875 541.8946533203125 889.699951171875 583.280029296875Q889.699951171875 603.552490234375 894.7232666015625 611.3770751953125Q899.8185424804688 619.3138427734375 904.7157592773438 621.538818359375Q905.4874267578125 621.889404296875 906.2347412109375 622.21435546875Q913.9464111328125 625.5679321289062 920.4035034179688 631.0287170410156Q926.860595703125 636.489501953125 931.5277404785156 643.6047668457031Q936.1948852539062 650.7200317382812 938.68505859375 658.8997802734375Q941.1752319335938 667.0795288085938 941.2818603515625 675.6454467773438L942.3582763671875 762.0219116210938Q942.5040893554688 773.7327880859375 938.2547607421875 784.6094665527344Q934.0054321289062 795.4861450195312 926.0077209472656 803.8725280761719Q918.010009765625 812.2589111328125 907.4814758300781 816.87841796875Q896.9529418945312 821.4979248046875 885.49658203125 821.6470947265625Q879.7796020507812 821.7215576171875 874.1597900390625 820.6456909179688Q825.5697021484375 811.3433837890625 789.945068359375 784.4104614257812Q740.8901977539062 747.3240356445312 716.856689453125 690.3482666015625Q693.5 634.9768676757812 693.5 571.3200073242188Q693.5 529.6720581054688 700.8838500976562 495.4547119140625Q707.0 467.1120300292969 707.0 438.8399963378906Q707.0 423.6046447753906 704.1190795898438 415.0457458496094Q703.3960571289062 412.8975830078125 702.6973266601562 411.7929382324219L702.8168334960938 411.85699462890625Q701.8952026367188 411.0404968261719 698.2876586914062 409.3511962890625Q691.6810302734375 406.2574768066406 681.4086303710938 403.4858093261719Q671.9563598632812 400.9354248046875 663.8564758300781 395.3397979736328Q655.756591796875 389.7441711425781 649.9164123535156 381.72996520996094Q644.0762329101562 373.71575927734375 641.1498718261719 364.1805877685547Q638.2235107421875 354.6454162597656 638.5386962890625 344.6572265625L641.4264526367188 253.1474609375Q641.733154296875 243.42849731445312 645.0805969238281 234.326416015625Q648.4280395507812 225.22433471679688 654.460693359375 217.7057876586914Q660.4933471679688 210.18724060058594 668.570556640625 205.05072784423828Q676.6477661132812 199.91421508789062 685.9116821289062 197.7052001953125Q701.6513061523438 193.95208740234375 711.3632202148438 189.33453369140625Q714.6092529296875 187.79119873046875 715.31640625 186.78250122070312L715.0999755859375 186.760009765625Q715.0999755859375 184.96734619140625 714.0015258789062 181.44480895996094Q704.4588623046875 156.8641357421875 698.2493896484375 129.5211639404297Q691.7000122070312 100.68148040771484 691.7000122070312 69.0Q691.7000122070312 35.80916976928711 700.779296875 2.2941391468048096Q710.3984985351562 -33.21384048461914 734.253173828125 -63.017398834228516Q758.8126831054688 -93.70166015625 801.10400390625 -111.53450775146484Q840.265625 -128.0476531982422 897.8060302734375 -128.76657104492188Q909.262451171875 -128.9097137451172 919.900390625 -124.5603141784668Q930.538330078125 -120.2109146118164 938.7383422851562 -112.03114318847656Q946.9383544921875 -103.85137176513672 951.4519653320312 -93.08652114868164Q955.965576171875 -82.32167053222656 956.105712890625 -70.61058044433594Q956.1122436523438 -70.06327819824219 956.1088256835938 -69.51595306396484Z"/></g></svg>